HIERARCHY
ROOT joint_0
{
	OFFSET 0.000000 0.000000 0.000000
	CHANNELS 6 Xposition Yposition Zposition Zrotation Yrotation Xrotation 
	JOINT joint_1
	{
		OFFSET 6.579712 -2.778931 100.531982
		CHANNELS 3 Zrotation Yrotation Xrotation
		JOINT joint_2
		{
			OFFSET -3.313232 -1.302856 91.974976
			CHANNELS 3 Zrotation Yrotation Xrotation
			JOINT joint_3
			{
				OFFSET -3.421509 -1.641846 91.864014
				CHANNELS 3 Zrotation Yrotation Xrotation
				JOINT joint_4
				{
					OFFSET 7.697388 -4.642578 123.278931
					CHANNELS 3 Zrotation Yrotation Xrotation
					JOINT joint_5
					{
						OFFSET 24.842529 -5.941528 79.695068
						CHANNELS 3 Zrotation Yrotation Xrotation
						End Site
						{
							OFFSET 0.000000 0.000000 0.000000
						}
					}
				}
				JOINT joint_6
				{
					OFFSET -0.159668 -29.112976 68.364014
					CHANNELS 3 Zrotation Yrotation Xrotation
					JOINT joint_7
					{
						OFFSET -18.356079 -115.987061 -20.069092
						CHANNELS 3 Zrotation Yrotation Xrotation
						JOINT joint_8
						{
							OFFSET 31.719482 -11.733276 -267.170898
							CHANNELS 3 Zrotation Yrotation Xrotation
							JOINT joint_9
							{
								OFFSET 29.329956 -5.879517 -234.654053
								CHANNELS 3 Zrotation Yrotation Xrotation
								End Site
								{
									OFFSET 0.000000 0.000000 0.000000
								}
							}
						}
					}
				}
				JOINT joint_10
				{
					OFFSET 8.802979 23.897949 69.798950
					CHANNELS 3 Zrotation Yrotation Xrotation
					JOINT joint_11
					{
						OFFSET 21.159058 115.524292 -19.981934
						CHANNELS 3 Zrotation Yrotation Xrotation
						JOINT joint_12
						{
							OFFSET 18.809204 5.403442 -268.593018
							CHANNELS 3 Zrotation Yrotation Xrotation
							JOINT joint_13
							{
								OFFSET 20.807861 0.421265 -235.639038
								CHANNELS 3 Zrotation Yrotation Xrotation
								End Site
								{
									OFFSET 0.000000 0.000000 0.000000
								}
							}
						}
					}
				}
			}
		}
	}
	JOINT joint_14
	{
		OFFSET -9.713379 -79.513916 -99.348022
		CHANNELS 3 Zrotation Yrotation Xrotation
		JOINT joint_15
		{
			OFFSET -40.607788 -6.518372 -502.938019
			CHANNELS 3 Zrotation Yrotation Xrotation
			JOINT joint_16
			{
				OFFSET -19.807617 -7.437378 -399.590012
				CHANNELS 3 Zrotation Yrotation Xrotation
				JOINT joint_17
				{
					OFFSET 171.701660 -44.751282 -77.782000
					CHANNELS 3 Zrotation Yrotation Xrotation
					End Site
					{
						OFFSET 0.000000 0.000000 0.000000
					}
				}
			}
		}
	}
	JOINT joint_18
	{
		OFFSET 17.854858 79.618652 -98.128052
		CHANNELS 3 Zrotation Yrotation Xrotation
		JOINT joint_19
		{
			OFFSET -24.848877 16.861816 -503.722992
			CHANNELS 3 Zrotation Yrotation Xrotation
			JOINT joint_20
			{
				OFFSET -30.162476 14.470093 -398.750008
				CHANNELS 3 Zrotation Yrotation Xrotation
				JOINT joint_21
				{
					OFFSET 176.096680 -10.987549 -80.021000
					CHANNELS 3 Zrotation Yrotation Xrotation
					End Site
					{
						OFFSET 0.000000 0.000000 0.000000
					}
				}
			}
		}
	}
}
MOTION
Frames: 10
Frame Time: 0.016667
-1775.816040 890.704529 1099.880981 6.432389 -0.591304 -0.257551 -0.920817 -1.872221 -0.431549 -0.863479 0.312309 -0.008864 -0.876664 -0.363886 -0.056461 0.114926 1.353261 -0.042860 0.000000 0.000000 0.000000 3.211710 1.889333 0.520901 -0.069772 2.367217 1.102906 -0.615195 -1.215232 -4.831535 0.000000 0.000000 0.000000 1.110989 1.649967 -0.350408 0.091044 1.459328 -0.280160 0.435079 -2.956337 5.818066 0.000000 0.000000 0.000000 -0.445536 -0.140271 -1.605904 -0.754062 -0.622043 2.366493 -0.585159 -1.210782 -0.579994 0.000000 0.000000 0.000000 0.723967 0.545613 1.550903 0.902333 1.405975 -1.369006 0.714373 -0.451387 0.296473 0.000000 0.000000 0.000000 
-1775.842163 890.729492 1099.947998 6.460813 -0.591579 -0.239355 -0.921785 -1.838591 -0.476266 -0.863262 0.305193 0.000317 -0.876631 -0.352244 -0.060833 0.108708 1.336412 -0.026992 0.000000 0.000000 0.000000 3.200040 1.850251 0.550400 -0.078684 2.346761 1.011566 -0.615860 -1.180357 -4.829569 0.000000 0.000000 0.000000 1.098497 1.581347 -0.388718 0.091127 1.383152 -0.265155 0.430725 -3.029798 5.774906 0.000000 0.000000 0.000000 -0.456209 -0.139940 -1.636144 -0.768558 -0.620235 2.385350 -0.598392 -1.206126 -0.584762 0.000000 0.000000 0.000000 0.710465 0.546109 1.536013 0.888447 1.408162 -1.375632 0.698818 -0.504464 0.286094 0.000000 0.000000 0.000000 
-1775.846191 890.732300 1099.958008 6.484889 -0.592259 -0.229852 -0.922422 -1.808672 -0.512904 -0.862875 0.302454 0.009622 -0.876615 -0.345401 -0.065991 0.102045 1.316931 -0.010299 0.000000 0.000000 0.000000 3.181297 1.819204 0.571136 -0.084574 2.326622 0.949183 -0.616442 -1.160853 -4.830059 0.000000 0.000000 0.000000 1.083874 1.519341 -0.418681 0.091158 1.316197 -0.254083 0.425976 -3.104563 5.725116 0.000000 0.000000 0.000000 -0.466191 -0.139008 -1.654304 -0.781198 -0.617670 2.401013 -0.610048 -1.199230 -0.588232 0.000000 0.000000 0.000000 0.699594 0.547713 1.533646 0.878032 1.409126 -1.386916 0.686809 -0.541963 0.278299 0.000000 0.000000 0.000000 
-1775.837891 890.724609 1099.936035 6.503766 -0.593662 -0.224924 -0.923739 -1.776156 -0.542910 -0.863549 0.297453 0.017857 -0.877656 -0.339632 -0.072437 0.094224 1.296137 0.009801 0.000000 0.000000 0.000000 3.160371 1.792548 0.587285 -0.088422 2.306269 0.906690 -0.617212 -1.153110 -4.834267 0.000000 0.000000 0.000000 1.069984 1.463000 -0.443321 0.091117 1.256391 -0.246554 0.421117 -3.178187 5.672211 0.000000 0.000000 0.000000 -0.474549 -0.136724 -1.666530 -0.791629 -0.616358 2.415316 -0.619701 -1.190392 -0.590292 0.000000 0.000000 0.000000 0.690140 0.550820 1.537888 0.869440 1.409809 -1.400352 0.676609 -0.573370 0.271706 0.000000 0.000000 0.000000 
-1775.829956 890.723938 1099.907959 6.513940 -0.593490 -0.221690 -0.925554 -1.744091 -0.567090 -0.864937 0.294793 0.025257 -0.879351 -0.334910 -0.076685 0.086257 1.277533 0.030884 0.000000 0.000000 0.000000 3.140759 1.768303 0.600833 -0.091181 2.286069 0.876114 -0.618031 -1.158266 -4.841411 0.000000 0.000000 0.000000 1.058033 1.413172 -0.468603 0.090916 1.203432 -0.243505 0.416456 -3.246948 5.619629 0.000000 0.000000 0.000000 -0.480163 -0.136329 -1.677829 -0.799291 -0.617055 2.430170 -0.626738 -1.178860 -0.590466 0.000000 0.000000 0.000000 0.682649 0.551081 1.541887 0.862855 1.414920 -1.410264 0.668461 -0.604754 0.266045 0.000000 0.000000 0.000000 
-1775.834595 890.739807 1099.883057 6.512856 -0.590917 -0.220204 -0.929567 -1.707863 -0.580517 -0.869255 0.288561 0.028180 -0.883587 -0.326471 -0.078204 0.077613 1.262293 0.054921 0.000000 0.000000 0.000000 3.132820 1.744939 0.612996 -0.093025 2.266428 0.857953 -0.619303 -1.181651 -4.855105 0.000000 0.000000 0.000000 1.055502 1.370649 -0.497401 0.090631 1.156126 -0.243936 0.411890 -3.315148 5.566660 0.000000 0.000000 0.000000 -0.482050 -0.139830 -1.688735 -0.803251 -0.619736 2.445314 -0.630313 -1.163012 -0.587951 0.000000 0.000000 0.000000 0.677479 0.546488 1.544061 0.858577 1.426494 -1.414527 0.662696 -0.637528 0.261380 0.000000 0.000000 0.000000 
-1775.840454 890.761597 1099.852051 6.502878 -0.586724 -0.220699 -0.934376 -1.670591 -0.586857 -0.874750 0.282081 0.028934 -0.888863 -0.317748 -0.078436 0.068136 1.248423 0.081944 0.000000 0.000000 0.000000 3.128293 1.723724 0.624081 -0.093854 2.247338 0.851455 -0.620621 -1.218756 -4.871798 0.000000 0.000000 0.000000 1.056698 1.334485 -0.524911 0.090155 1.115685 -0.249558 0.407547 -3.378896 5.514472 0.000000 0.000000 0.000000 -0.480923 -0.145445 -1.698132 -0.804086 -0.624265 2.460416 -0.630957 -1.144395 -0.583389 0.000000 0.000000 0.000000 0.674408 0.538830 1.546319 0.856480 1.442899 -1.415256 0.659120 -0.670955 0.257668 0.000000 0.000000 0.000000 
-1775.838135 890.779663 1099.822021 6.481418 -0.580192 -0.221386 -0.936152 -1.637159 -0.593377 -0.877081 0.276769 0.030773 -0.891062 -0.309771 -0.079022 0.058664 1.235616 0.109198 0.000000 0.000000 0.000000 3.117168 1.702418 0.638817 -0.094345 2.227592 0.844592 -0.620566 -1.251661 -4.878523 0.000000 0.000000 0.000000 1.050070 1.303725 -0.546469 0.089419 1.084264 -0.261807 0.404120 -3.427179 5.470112 0.000000 0.000000 0.000000 -0.476209 -0.153824 -1.707236 -0.801267 -0.630586 2.474757 -0.628216 -1.122348 -0.576404 0.000000 0.000000 0.000000 0.674497 0.527730 1.547931 0.857685 1.464793 -1.413764 0.658702 -0.705161 0.255342 0.000000 0.000000 0.000000 
-1775.828613 890.791077 1099.795044 6.447936 -0.572265 -0.222484 -0.933910 -1.604411 -0.601486 -0.875331 0.270789 0.032979 -0.889234 -0.303176 -0.080271 0.048973 1.224779 0.137608 0.000000 0.000000 0.000000 3.094041 1.678661 0.661630 -0.095102 2.206014 0.829025 -0.618072 -1.274950 -4.866964 0.000000 0.000000 0.000000 1.031669 1.277618 -0.556061 0.088041 1.063989 -0.286941 0.402003 -3.455998 5.437825 0.000000 0.000000 0.000000 -0.467221 -0.163389 -1.715542 -0.793975 -0.640105 2.487577 -0.621393 -1.095553 -0.566336 0.000000 0.000000 0.000000 0.678133 0.512717 1.549037 0.862682 1.495218 -1.409591 0.661818 -0.741609 0.254480 0.000000 0.000000 0.000000 
-1775.810913 890.798767 1099.769043 6.403370 -0.561993 -0.223998 -0.929267 -1.575609 -0.609306 -0.871099 0.265746 0.035406 -0.884918 -0.296402 -0.080812 0.039156 1.214010 0.166426 0.000000 0.000000 0.000000 3.065640 1.654379 0.687347 -0.095476 2.183421 0.813265 -0.614200 -1.293492 -4.845268 0.000000 0.000000 0.000000 1.007533 1.256621 -0.559447 0.086356 1.052250 -0.319417 0.400795 -3.469031 5.413098 0.000000 0.000000 0.000000 -0.454580 -0.175764 -1.723253 -0.782927 -0.651211 2.499419 -0.611092 -1.065346 -0.553807 0.000000 0.000000 0.000000 0.684808 0.494316 1.549667 0.870862 1.530916 -1.403172 0.667983 -0.779061 0.254941 0.000000 0.000000 0.000000 
